<?xml version="1.0" standalone="no"?>
<!DOCTYPE svg PUBLIC "-//W3C//DTD SVG 20010904//EN"
 "http://www.w3.org/TR/2001/REC-SVG-20010904/DTD/svg10.dtd">
<svg version="1.0" xmlns="http://www.w3.org/2000/svg"
 width="260.000000pt" height="260.000000pt" viewBox="0 0 260.000000 260.000000"
 preserveAspectRatio="xMidYMid meet">
<metadata>
Created by potrace 1.14, written by Peter Selinger 2001-2017
</metadata>
<g transform="translate(0.000000,260.000000) scale(0.100000,-0.100000)"
fill="#000000" stroke="none">
<path d="M1750 1295 l0 -1045 254 0 253 0 0 1045 0 1045 -253 0 -254 0 0
-1045z"/>
<path d="M1050 1670 c0 -164 1 -170 23 -185 12 -9 68 -45 124 -81 l101 -65 34
19 c18 10 76 46 129 80 l96 63 0 169 -1 170 -253 0 -253 0 0 -170z"/>
<path d="M1530 1272 c-14 -9 -71 -47 -127 -83 l-102 -68 -120 80 c-67 43 -123
79 -126 79 -3 0 -5 -101 -5 -225 0 -173 3 -225 13 -225 21 -1 359 -1 428 0
l66 0 0 230 c0 127 -1 230 -1 229 -1 0 -12 -8 -26 -17z"/>
<path d="M360 695 l0 -445 254 0 254 0 0 445 1 445 -255 0 -254 0 0 -445z"/>
<path d="M1050 455 l0 -205 253 0 254 0 -1 203 -1 202 -252 2 -253 3 0 -205z"/>
</g>
</svg>
